<?xml version="1.0" standalone="no"?><!DOCTYPE svg PUBLIC "-//W3C//DTD SVG 1.1//EN" "http://www.w3.org/Graphics/SVG/1.1/DTD/svg11.dtd"><svg t="1736562824923" class="icon" viewBox="0 0 1024 1024" version="1.1" xmlns="http://www.w3.org/2000/svg" p-id="8911" xmlns:xlink="http://www.w3.org/1999/xlink" width="200" height="200"><path d="M271.179294 393.216h211.787294V214.558118H271.179294v178.657882z m82.341647-154.383059c36.321882 39.695059 62.524235 73.005176 78.667294 99.990588l-47.766588 33.852236A1085.44 1085.44 0 0 0 311.597176 267.444706l41.923765-28.611765zM753.543529 214.558118H541.816471v178.718117h211.727058V214.558118z m-127.216941 163.177411l-44.092235-27.888941c26.925176-34.755765 51.922824-72.282353 74.992941-112.459294l52.163765 29.394824a3131.151059 3131.151059 0 0 1-83.064471 110.953411z" fill="#2C2C2C" p-id="8912"></path><path d="M0 0v1024h1024V0H0z m208.655059 858.714353a21425.694118 21425.694118 0 0 1-53.669647-23.552c28.431059-44.634353 52.946824-91.497412 73.547294-140.528941l53.669647 21.383529c-26.443294 57.886118-51.019294 105.411765-73.547294 142.697412z m204.438588-7.348706a1732.728471 1732.728471 0 0 0-58.849882-127.939765l47.766588-21.383529c23.070118 39.695059 44.574118 80.715294 64.692706 122.88l-53.609412 26.443294z m183.838118-5.240471a1472.150588 1472.150588 0 0 0-66.921412-125.650823l46.320941-24.335059a1301.684706 1301.684706 0 0 1 72.764235 120.591059l-52.163764 29.394823z m224.256 11.745883a3374.200471 3374.200471 0 0 0-108.845177-134.445177l44.092236-32.346353a3753.261176 3753.261176 0 0 1 112.519529 127.939765l-47.766588 38.851765z m52.224-173.537883h-722.82353v-49.152h332.378353V563.139765H207.209412v-48.609883h275.757176V442.488471H271.179294v23.552h-55.175529V165.285647h592.655059v300.694588h-55.115295v-23.491764H541.816471v72.041411h280.154353v48.609883H541.816471v72.041411H873.411765v49.152z" fill="#2C2C2C" p-id="8913"></path></svg>