<?xml version="1.0" standalone="no"?><!DOCTYPE svg PUBLIC "-//W3C//DTD SVG 1.1//EN" "http://www.w3.org/Graphics/SVG/1.1/DTD/svg11.dtd"><svg t="1736559770068" class="icon" viewBox="0 0 1024 1024" version="1.1" xmlns="http://www.w3.org/2000/svg" p-id="5802" xmlns:xlink="http://www.w3.org/1999/xlink" width="200" height="200"><path d="M176.896 160h670.208a48.896 48.896 0 1 1 0 97.728H176.896a48.896 48.896 0 0 1 0-97.728zM128 410.944c0-27.008 21.888-48.832 48.896-48.832h670.208a48.896 48.896 0 1 1 0 97.728H176.896A48.896 48.896 0 0 1 128 410.88z m0 404.16c0-26.944 21.888-48.832 48.896-48.832h670.208a48.896 48.896 0 1 1 0 97.728H176.896A48.896 48.896 0 0 1 128 815.104zM128 613.12c0-27.008 21.888-48.896 48.896-48.896h670.208a48.896 48.896 0 1 1 0 97.728H176.896A48.896 48.896 0 0 1 128 613.12z" fill="#333333" p-id="5803"></path></svg>