<?xml version="1.0" standalone="no"?><!DOCTYPE svg PUBLIC "-//W3C//DTD SVG 1.1//EN" "http://www.w3.org/Graphics/SVG/1.1/DTD/svg11.dtd"><svg t="1736562732174" class="icon" viewBox="0 0 1024 1024" version="1.1" xmlns="http://www.w3.org/2000/svg" p-id="7904" xmlns:xlink="http://www.w3.org/1999/xlink" width="200" height="200"><path d="M512 93.866667C281.258667 93.866667 93.866667 281.258667 93.866667 512S281.258667 930.133333 512 930.133333 930.133333 742.741333 930.133333 512 742.741333 93.866667 512 93.866667z m0 780.629333c-199.68 0-362.496-162.474667-362.496-362.496S312.32 149.504 512 149.504 874.496 312.32 874.496 512 711.68 874.496 512 874.496z" fill="#666666" p-id="7905"></path><path d="M683.690667 601.429333c-43.008 5.802667-81.578667 8.533333-115.712 8.533334h-4.437334c0-1.365333-1.365333-2.048-4.437333-2.048l2.048-6.485334-4.437333-64.512c0-12.970667 2.730667-23.552 8.533333-32.426666 8.533333 4.437333 17.749333 6.485333 27.989333 6.485333h6.485334l70.656-8.533333h12.970666c2.730667 0 5.12-3.413333 6.485334-10.922667v-12.970667c-8.533333-12.970667-19.456-19.456-32.085334-19.456-7.168 0-15.701333 1.365333-25.6 4.437334-43.008 14.336-65.877333 21.504-68.608 21.504-4.437333-9.898667-6.485333-22.869333-6.485333-38.912v-38.912l-4.437333-47.445334v-10.922666c12.970667-5.802667 27.989333-8.533333 45.056-8.533334h60.074666l17.066667-2.048c7.168 0 10.581333-5.12 10.581333-15.018666 0-4.437333-2.730667-9.898667-8.533333-17.408-9.898667-11.605333-20.138667-17.408-30.037333-17.408-15.701333 1.365333-43.008 7.168-81.578667 17.408-18.432 2.730667-43.008 5.802667-73.045333 8.533333L389.12 331.776c-15.701333 0-23.552 2.730667-23.552 8.533333v2.048l12.970667 10.922667c12.970667 20.138667 25.6 30.037333 38.570666 30.037333h2.048l6.485334-2.048c11.264-9.898667 20.138667-15.701333 25.6-17.408 25.6-2.730667 43.008-6.485333 51.541333-10.922666 4.437333 2.730667 6.485333 8.533333 6.485333 17.408v36.522666c-4.437333 28.672-6.485333 52.565333-6.485333 70.997334l4.437333 122.88-2.048 15.018666c-7.168 5.802667-17.066667 9.898667-30.037333 12.970667-25.6 2.730667-43.008 7.168-51.541333 12.970667-1.365333 0-4.437333-2.048-8.533334-6.485334 5.802667-41.642667 8.533333-69.632 8.533334-83.968 0-18.773333-2.730667-33.792-8.533334-45.397333-5.802667-14.336-19.456-21.504-40.618666-21.504-21.504 1.365333-33.450667 4.437333-36.522667 8.533333v4.437334c2.730667 14.336 5.802667 21.504 8.533333 21.504 24.234667 20.138667 36.522667 52.565333 36.522667 96.938666-1.365333 21.504-2.730667 32.426667-4.437333 32.426667 0 5.802667-23.552 9.216-70.656 10.922667-12.970667 1.365333-19.456 6.485333-19.456 15.018666 0 2.730667 2.048 7.168 6.485333 12.970667 15.701333 11.605333 24.234667 18.773333 25.6 21.504 2.730667 0 4.437333 0.682667 4.437333 2.048h2.730667c15.701333 0 29.354667-3.754667 40.618667-10.922667 11.264-5.802667 22.186667-9.216 32.085333-10.922666l75.093333-21.504 51.541334-6.485334c57.002667-9.898667 95.914667-15.018667 115.712-15.018666h6.485333c12.970667 0 22.186667 1.365333 27.989333 4.437333 21.504 12.970667 34.474667 19.456 38.570667 19.456h4.437333c7.168 0 12.288-5.802667 15.018667-17.408-7.509333-19.114667-24.576-36.522667-51.541333-50.858667z" fill="#666666" p-id="7906"></path></svg>